<mxfile host="Electron" modified="2023-09-12T16:34:53.101Z" agent="Mozilla/5.0 (Windows NT 10.0; Win64; x64) AppleWebKit/537.36 (KHTML, like Gecko) draw.io/21.6.5 Chrome/114.0.5735.243 Electron/25.3.1 Safari/537.36" etag="GH1krVgSd5xu7r_hky-P" version="21.6.5" type="device">
  <diagram name="Page-1" id="3zBOuF_bFRsjoLNg5_o2">
    <mxGraphModel dx="1098" dy="820" grid="1" gridSize="10" guides="1" tooltips="1" connect="1" arrows="1" fold="1" page="1" pageScale="1" pageWidth="850" pageHeight="1100" math="0" shadow="0">
      <root>
        <mxCell id="0" />
        <mxCell id="1" parent="0" />
        <mxCell id="zJHjJzwunmIy_XX8YG-8-2" style="edgeStyle=orthogonalEdgeStyle;rounded=0;orthogonalLoop=1;jettySize=auto;html=1;" edge="1" parent="1" source="zJHjJzwunmIy_XX8YG-8-1">
          <mxGeometry relative="1" as="geometry">
            <mxPoint x="360" y="200" as="targetPoint" />
          </mxGeometry>
        </mxCell>
        <mxCell id="zJHjJzwunmIy_XX8YG-8-1" value="Store new podcasts" style="ellipse;whiteSpace=wrap;html=1;" vertex="1" parent="1">
          <mxGeometry x="295" y="80" width="130" height="60" as="geometry" />
        </mxCell>
        <mxCell id="zJHjJzwunmIy_XX8YG-8-4" style="edgeStyle=orthogonalEdgeStyle;rounded=0;orthogonalLoop=1;jettySize=auto;html=1;" edge="1" parent="1" source="zJHjJzwunmIy_XX8YG-8-3" target="zJHjJzwunmIy_XX8YG-8-5">
          <mxGeometry relative="1" as="geometry">
            <mxPoint x="360" y="330" as="targetPoint" />
          </mxGeometry>
        </mxCell>
        <mxCell id="zJHjJzwunmIy_XX8YG-8-3" value="Select file" style="ellipse;whiteSpace=wrap;html=1;" vertex="1" parent="1">
          <mxGeometry x="300" y="190" width="120" height="80" as="geometry" />
        </mxCell>
        <mxCell id="zJHjJzwunmIy_XX8YG-8-6" style="edgeStyle=orthogonalEdgeStyle;rounded=0;orthogonalLoop=1;jettySize=auto;html=1;" edge="1" parent="1" source="zJHjJzwunmIy_XX8YG-8-5" target="zJHjJzwunmIy_XX8YG-8-7">
          <mxGeometry relative="1" as="geometry">
            <mxPoint x="360" y="460" as="targetPoint" />
          </mxGeometry>
        </mxCell>
        <mxCell id="zJHjJzwunmIy_XX8YG-8-5" value="Select location to save to" style="ellipse;whiteSpace=wrap;html=1;" vertex="1" parent="1">
          <mxGeometry x="300" y="320" width="120" height="80" as="geometry" />
        </mxCell>
        <mxCell id="zJHjJzwunmIy_XX8YG-8-7" value="Upload file to location" style="ellipse;whiteSpace=wrap;html=1;" vertex="1" parent="1">
          <mxGeometry x="300" y="430" width="120" height="80" as="geometry" />
        </mxCell>
      </root>
    </mxGraphModel>
  </diagram>
</mxfile>
